<svg width="40" height="46" viewBox="0 0 40 46" fill="none" xmlns="http://www.w3.org/2000/svg">
<path d="M36.2976 21.0526V20.1089H37.2414C38.7659 20.1089 40 18.8748 40 17.3503V7.84029C39.9274 6.31579 38.7659 5.08167 37.2414 5.08167H36.2976V2.75862C36.2976 1.23412 35.1361 0 33.6116 0H6.38838C4.86388 0 3.62976 1.23412 3.62976 2.75862V5.08167H2.75862C1.23412 5.08167 0 6.31579 0 7.84029V17.4229C0 18.9474 1.23412 20.1815 2.75862 20.1815H3.62976V21.0526C3.62976 22.5771 4.86388 23.8112 6.38838 23.8112H15.8984C16.4065 23.8112 16.7695 24.2468 16.7695 24.6824C16.7695 29.9818 15.8258 33.7568 15.1724 36.8058C14.9546 37.7495 14.7368 38.6207 14.5917 39.4918V39.5644C14.3013 43.049 17.2777 45.8802 20.6897 45.4446C23.4483 45.0817 25.6987 42.6134 25.4083 39.5644V39.4918C25.2632 38.6207 25.0454 37.6769 24.755 36.6606C24.029 33.6116 23.1579 29.8367 23.1579 24.6098C23.1579 24.1016 23.5935 23.7387 24.029 23.7387H33.539C35.1361 23.8112 36.2976 22.5771 36.2976 21.0526ZM5.44465 2.75862C5.44465 2.25045 5.88022 1.81488 6.38838 1.81488H33.6116C34.1198 1.81488 34.5554 2.25045 34.5554 2.75862V9.29219C34.5554 9.80036 34.1198 10.2359 33.6116 10.2359H6.38838C5.88022 10.2359 5.44465 9.80036 5.44465 9.29219V2.75862ZM3.62976 17.4229V18.3666H2.75862C2.25045 18.3666 1.81488 17.931 1.81488 17.4229V7.84029C1.81488 7.33212 2.25045 6.89655 2.75862 6.89655H3.62976V9.29219C3.62976 10.8167 4.86388 12.0508 6.38838 12.0508H33.6116C35.1361 12.0508 36.3702 10.8167 36.3702 9.29219V6.89655H37.314C37.8221 6.89655 38.2577 7.33212 38.2577 7.84029V17.4229C38.2577 17.931 37.8221 18.3666 37.314 18.3666H36.2976V17.4229C36.2976 15.8984 35.0635 14.6642 33.539 14.6642H6.38838C4.86388 14.7368 3.62976 15.971 3.62976 17.4229ZM34.4828 21.0526C34.4828 21.5608 34.0472 21.9964 33.539 21.9964H24.1016C22.6497 21.9964 21.4156 23.2305 21.4156 24.6824C21.4156 30.127 22.3593 33.9746 23.0853 37.0962C23.3031 38.0399 23.5209 38.9837 23.6661 39.7822C23.8113 41.6697 22.3593 43.412 20.4719 43.6298C18.1488 43.9201 16.2613 42.0327 16.4065 39.7822C16.5517 38.9837 16.7695 38.1125 16.9873 37.1688C17.7132 34.0472 18.5844 30.127 18.657 24.6098V24.6824C18.657 23.2305 17.4229 21.9964 15.8984 21.9964H6.38838C5.88022 21.9964 5.44465 21.5608 5.44465 21.0526V17.4229C5.44465 16.9147 5.88022 16.4791 6.38838 16.4791H33.6116C34.1198 16.4791 34.5554 16.9147 34.5554 17.4229L34.4828 21.0526Z" fill="white"/>
</svg>
