<svg width="15" height="10" viewBox="0 0 15 10" fill="none" xmlns="http://www.w3.org/2000/svg">
<path d="M0.15 4.15L2.15 2.15C2.25 2.05 2.35 2 2.5 2H5V0.5C5 0.2 5.2 0 5.5 0H14.5C14.8 0 15 0.2 15 0.5V8.5C15 8.8 14.8 9 14.5 9H13.4C13.2 9.6 12.65 10 12 10C11.35 10 10.8 9.6 10.6 9H5.5H4.4C4.2 9.6 3.65 10 3 10C2.35 10 1.8 9.6 1.6 9H0.5C0.2 9 0 8.8 0 8.5V4.5C0 4.35 0.0499992 4.25 0.15 4.15ZM12 9C12.3 9 12.5 8.8 12.5 8.5C12.5 8.2 12.3 8 12 8C11.7 8 11.5 8.2 11.5 8.5C11.5 8.8 11.7 9 12 9ZM3 9C3.3 9 3.5 8.8 3.5 8.5C3.5 8.2 3.3 8 3 8C2.7 8 2.5 8.2 2.5 8.5C2.5 8.8 2.7 9 3 9Z" fill="white"/>
</svg>
