<svg width="81" height="77" viewBox="0 0 81 77" fill="none" xmlns="http://www.w3.org/2000/svg">
<path d="M71.3 48.5005L80.8 38.4005L71.3 28.4005L73.1 14.7005L59.5 12.2005L52.9 0.000488281L40.4 5.90049L27.9 0.000488281L21.3 12.1005L7.7 14.7005L9.5 28.4005L0 38.5005L9.5 48.5005L7.7 62.2005L21.3 64.7005L27.9 76.8005L40.4 71.0005L52.9 76.9005L59.5 64.8005L73.1 62.2005L72.9 60.8005L71.3 48.5005ZM40.4 64.9005C25.8 64.9005 13.9 53.0005 13.9 38.4005C13.9 23.8005 25.8 11.9005 40.4 11.9005C55 11.9005 66.9 23.8005 66.9 38.4005C66.9 53.0005 55.1 64.9005 40.4 64.9005Z" fill="#232E35"/>
<path d="M40.4004 16.9004C28.5004 16.9004 18.9004 26.5004 18.9004 38.4004C18.9004 50.3004 28.5004 59.9004 40.4004 59.9004C52.3004 59.9004 61.9004 50.3004 61.9004 38.4004C61.9004 26.5004 52.3004 16.9004 40.4004 16.9004ZM40.0004 48.4004L30.1004 40.1004L28.2004 38.5004L31.4004 34.7004L39.3004 41.3004L50.6004 27.5004L54.5004 30.7004L40.0004 48.4004Z" fill="#D74848"/>
</svg>
