<svg width="82" height="64" viewBox="0 0 82 64" fill="none" xmlns="http://www.w3.org/2000/svg">
<path d="M66.4 44.9131L63.7 41.7131L42.3 15.6131C42.1 15.3131 41.7 15.3131 41.4 15.4131L31.1 21.1131C27.8 23.0131 23.8 23.3131 20.3 21.9131C18.3 21.2131 16.8 19.7131 16.1 17.7131C15.5 15.7131 15.8 13.6131 16.8 11.8131C17.1 11.3131 16.9 10.7131 16.4 10.5131C16.3 10.4131 16.1 10.4131 15.9 10.4131H2C0.9 10.4131 0 11.3131 0 12.4131V40.1131C0 41.1131 0.9 42.0131 2 42.0131H6.3L9.3 38.4131C12 35.2131 16.8 34.7131 20 37.4131C21.2 38.4131 22.1 39.7131 22.5 41.2131C25.1 41.9131 27.1 43.9131 27.8 46.4131C29.7 46.9131 31.2 48.2131 32.2 49.9131C33.8 50.2131 35.3 50.9131 36.4 52.1131C38.8 54.6131 39.3 58.5131 37.5 61.5131L37 62.2131C37 62.2131 37 62.2131 37 62.3131C39 63.7131 41.7 63.2131 43 61.2131C43.7 60.2131 43.9 59.0131 43.7 57.9131V57.8131H43.8L44.1 58.1131C45.6 59.6131 48 59.8131 49.7 58.7131C51.1 57.7131 51.8 56.0131 51.5 54.3131V54.2131H51.6L51.9 54.5131C53.4 56.0131 55.8 56.2131 57.5 55.1131C58.9 54.1131 59.6 52.4131 59.3 50.7131V50.6131H59.4L59.8 50.9131C61.2 52.3131 63.4 52.6131 65.2 51.6131C67.3 50.4131 67.9 47.7131 66.7 45.6131C66.8 45.3131 66.6 45.1131 66.4 44.9131Z" fill="#232E35"/>
<path d="M29.3998 54.013C29.2998 54.013 29.2998 54.013 29.2998 54.013C29.2998 54.013 29.2998 54.013 29.2998 53.913C29.3998 51.913 27.7998 50.113 25.7998 50.013C25.2998 50.013 24.7998 50.113 24.2998 50.213C23.7998 50.313 23.8998 49.813 23.8998 49.813C24.6998 47.913 23.7998 45.813 21.8998 45.013C20.8998 44.613 19.6998 44.613 18.6998 45.213C18.2998 45.313 18.2998 44.913 18.2998 44.913C19.2998 43.213 18.6998 40.913 16.9998 39.913C15.3998 39.013 13.2998 39.413 12.1998 40.913L9.2998 44.413C7.9998 46.013 8.2998 48.313 9.7998 49.513C9.7998 49.513 9.7998 49.513 9.8998 49.513L10.2998 49.813C11.4998 50.713 13.0998 50.813 14.3998 50.113C14.4998 50.013 14.5998 50.113 14.5998 50.113V50.213C14.2998 51.613 14.7998 52.913 15.8998 53.813L16.2998 54.113C17.3998 55.013 18.9998 55.113 20.1998 54.513C20.2998 54.513 20.3998 54.513 20.4998 54.613V54.713C20.3998 56.013 20.8998 57.213 21.8998 58.013L22.0998 58.213C23.1998 59.113 24.7998 59.213 26.0998 58.613C26.1998 58.513 26.2998 58.613 26.3998 58.713V58.813C26.4998 59.713 26.9998 60.513 27.7998 61.113L27.9998 61.213C29.5998 62.513 31.9998 62.213 33.1998 60.613C33.2998 60.513 33.3998 60.313 33.4998 60.213L33.9998 59.313C34.8998 57.813 34.6998 55.813 33.3998 54.513C32.2998 53.713 30.6998 53.413 29.3998 54.013Z" fill="#D74848"/>
<path d="M79.2996 10.4127H75.5996C73.9996 10.4127 72.4996 10.1127 70.9996 9.6127L48.2996 0.912701C43.6996 -0.787299 38.5996 -0.0872991 34.6996 2.8127L20.5996 13.7127C20.2996 14.0127 20.0996 14.3127 19.8996 14.6127C19.2996 16.0127 19.8996 17.5127 21.2996 18.1127C23.8996 19.2127 26.7996 19.1127 29.1996 17.7127L41.2996 11.0127C42.1996 10.5127 43.3996 10.7127 43.9996 11.5127L70.3996 43.5127C70.5996 43.8127 71.0996 43.8127 71.2996 43.6127L72.3996 42.7127C72.8996 42.3127 73.5996 42.0127 74.2996 42.0127H79.1996C80.2996 42.0127 81.1996 41.1127 81.1996 40.0127V12.4127C81.1996 12.4127 81.1996 12.4127 81.1996 12.3127C81.2996 11.3127 80.3996 10.4127 79.2996 10.4127Z" fill="#D74848"/>
</svg>
