<svg width="68" height="68" viewBox="0 0 68 68" fill="none" xmlns="http://www.w3.org/2000/svg">
<path d="M34 0.000488281C15.1836 0.000488281 0 15.184 0 34.0005C0 52.8169 15.1836 68.0005 34 68.0005C52.8164 68.0005 68 52.8169 68 34.0005C68 15.184 52.8164 0.000488281 34 0.000488281ZM37.5397 35.6772L28.7836 44.4334C28.1315 45.0854 27.3863 45.3649 26.5479 45.3649C25.7096 45.3649 24.9644 45.0854 24.3123 44.4334C23.0082 43.1293 23.0082 41.1731 24.3123 39.869L31.2055 32.9758V18.8169C31.2055 17.0471 32.6027 15.6498 34.3726 15.6498C36.1425 15.6498 37.5397 17.0471 37.5397 18.8169V35.6772Z" fill="#232E35"/>
</svg>
