<svg width="19" height="16" viewBox="0 0 19 16" fill="none" xmlns="http://www.w3.org/2000/svg">
<path d="M1.32715 3.90283L7.24838 7.9361C8.60699 8.86152 10.3935 8.86152 11.7521 7.9361L17.6733 3.90283" stroke="white" stroke-width="2" stroke-linecap="round" stroke-linejoin="round"/>
<path d="M5 14.7109L5 13.7109L5 14.7109ZM14 13.7109L5 13.7109L5 15.7109L14 15.7109L14 13.7109ZM17 5.61182L17 10.7109L19 10.7109L19 5.61182L17 5.61182ZM1.69365e-06 5.61183L1.42123e-06 10.7109L2 10.7109L2 5.61183L1.69365e-06 5.61183ZM14 0.61182L5 0.611829L5 2.61183L14 2.61182L14 0.61182ZM19 5.61182C19 2.85039 16.7614 0.611818 14 0.61182L14 2.61182C15.6569 2.61182 17 3.95496 17 5.61182L19 5.61182ZM2 5.61183C2 3.95498 3.34315 2.61183 5 2.61183L5 0.611829C2.23858 0.611832 1.84118e-06 2.85041 1.69365e-06 5.61183L2 5.61183ZM5 13.7109C3.34315 13.7109 2 12.3678 2 10.7109L1.42123e-06 10.7109C1.2737e-06 13.4723 2.23858 15.7109 5 15.7109L5 13.7109ZM14 15.7109C16.7614 15.7109 19 13.4723 19 10.7109L17 10.7109C17 12.3678 15.6569 13.7109 14 13.7109L14 15.7109Z" fill="white"/>
</svg>
