<svg width="32" height="33" viewBox="0 0 32 33" fill="none" xmlns="http://www.w3.org/2000/svg">
<path d="M0 16.3797C0 7.56474 7.2 0.352539 16 0.352539C24.8 0.352539 32 7.56474 32 16.3797C32 25.1946 24.8 32.4068 16 32.4068C7.2 32.4068 0 25.1946 0 16.3797Z" fill="#FF0000"/>
<path d="M23 10.7703C23.8 10.9706 24.4 11.5717 24.6 12.373C25 13.7754 25 16.8806 25 16.8806C25 16.8806 25 19.8857 24.6 21.3883C24.4 22.1896 23.8 22.7906 23 22.991C21.6 23.3917 16 23.3917 16 23.3917C16 23.3917 10.4 23.3917 9 22.991C8.2 22.7906 7.59999 22.1896 7.39999 21.3883C6.99999 19.9859 7 16.8806 7 16.8806C7 16.8806 6.99999 13.8756 7.39999 12.373C7.59999 11.5717 8.2 10.9706 9 10.7703C10.4 10.3696 16 10.3696 16 10.3696C16 10.3696 21.6 10.3696 23 10.7703ZM14.3 14.3764V20.0861L18.8 17.2813L14.3 14.3764Z" fill="white"/>
</svg>
