<svg width="32" height="33" viewBox="0 0 32 33" fill="none" xmlns="http://www.w3.org/2000/svg">
<path d="M0 16.3797C0 7.56474 7.2 0.352539 16 0.352539C24.8 0.352539 32 7.56474 32 16.3797C32 25.1946 24.8 32.4068 16 32.4068C7.2 32.4068 0 25.1946 0 16.3797Z" fill="#3D90CE"/>
<path d="M16.3 13.5751V14.076L15.8 13.9758C13.8 13.7755 12.1 12.8739 10.6 11.4716L9.89999 10.7704L9.7 11.2712C9.3 12.3731 9.59999 13.5751 10.4 14.3765C10.8 14.7772 10.7 14.8773 10 14.5768C9.7 14.4767 9.5 14.4767 9.5 14.4767C9.4 14.5768 9.69999 15.4783 9.89999 15.879C10.2 16.3799 10.8 16.8807 11.4 17.2814L11.9 17.4817H11.3C10.7 17.4817 10.7 17.4817 10.7 17.6821C10.9 18.3833 11.8 19.0844 12.7 19.385L13.4 19.5853L12.8 19.8858C11.9 20.3867 10.9 20.6872 9.89999 20.6872C9.39999 20.6872 9 20.7873 9 20.7873C9 20.8875 10.3 21.4885 11.1 21.6889C13.4 22.39 16.2 22.0895 18.2 20.8875C19.7 20.0861 21.1 18.3833 21.8 16.7806C22.2 15.879 22.5 14.3765 22.5 13.5751C22.5 13.0743 22.5 12.9741 23.1 12.4733C23.5 12.1728 23.8 11.7721 23.9 11.6719C24 11.4716 24 11.4716 23.4 11.6719C22.5 11.9724 22.3 11.9724 22.8 11.4716C23.1 11.1711 23.5 10.4699 23.5 10.3697C23.5 10.3697 23.3 10.3697 23.2 10.4699C23 10.57 22.6 10.7704 22.2 10.8706L21.6 11.0709L21.1 10.6702C20.8 10.4699 20.4 10.2695 20.2 10.1694C19.6 10.0692 18.8 10.0692 18.3 10.1694C17 10.9707 16.2 12.1728 16.3 13.5751Z" fill="white"/>
</svg>
