<svg width="32" height="33" viewBox="0 0 32 33" fill="none" xmlns="http://www.w3.org/2000/svg">
<path d="M0 16.3797C0 7.56474 7.2 0.352539 16 0.352539C24.8 0.352539 32 7.56474 32 16.3797C32 25.1946 24.8 32.4068 16 32.4068C7.2 32.4068 0 25.1946 0 16.3797Z" fill="url(#paint0_radial)"/>
<path d="M15.9996 8.36621C13.7996 8.36621 13.5996 8.36621 12.6996 8.36621C11.7996 8.36621 11.2996 8.56655 10.7996 8.76689C10.2996 8.96723 9.79961 9.26774 9.39961 9.66841C8.99961 10.0691 8.69961 10.5699 8.49961 11.0708C8.29961 11.5716 8.19961 12.1727 8.09961 12.974C8.09961 13.8755 8.09961 14.0759 8.09961 16.2796C8.09961 18.4833 8.09961 18.6837 8.09961 19.5852C8.09961 20.4867 8.29961 20.9876 8.49961 21.4884C8.69961 21.9893 8.99961 22.4901 9.39961 22.8908C9.79961 23.2915 10.2996 23.592 10.7996 23.7923C11.2996 23.9927 11.8996 24.0928 12.6996 24.193C13.5996 24.193 13.7996 24.193 15.9996 24.193C18.1996 24.193 18.3996 24.193 19.2996 24.193C20.1996 24.193 20.6996 23.9927 21.1996 23.7923C21.6996 23.592 22.1996 23.2915 22.5996 22.8908C22.9996 22.4901 23.2996 21.9893 23.4996 21.4884C23.6996 20.9876 23.7996 20.3866 23.8996 19.5852C23.8996 18.6837 23.8996 18.4833 23.8996 16.2796C23.8996 14.0759 23.8996 13.8755 23.8996 12.974C23.8996 12.0725 23.6996 11.5716 23.4996 11.0708C23.2996 10.5699 22.9996 10.0691 22.5996 9.66841C22.1996 9.26774 21.6996 8.96723 21.1996 8.76689C20.6996 8.56655 20.0996 8.46638 19.2996 8.36621C18.3996 8.36621 18.1996 8.36621 15.9996 8.36621ZM15.2996 9.76858H15.9996C18.0996 9.76858 18.3996 9.76858 19.1996 9.76858C19.9996 9.76858 20.3996 9.96892 20.6996 10.0691C21.0996 10.1693 21.2996 10.3696 21.5996 10.6701C21.8996 10.9706 22.0996 11.171 22.1996 11.5716C22.2996 11.8721 22.3996 12.2728 22.4996 13.0742C22.4996 13.8755 22.4996 14.176 22.4996 16.2796C22.4996 18.3832 22.4996 18.6837 22.4996 19.485C22.4996 20.2864 22.2996 20.6871 22.1996 20.9876C22.0996 21.2881 21.8996 21.6888 21.5996 21.8891C21.2996 22.1896 21.0996 22.3899 20.6996 22.4901C20.3996 22.5903 19.9996 22.6904 19.1996 22.7906C18.3996 22.7906 18.0996 22.7906 15.9996 22.7906C13.8996 22.7906 13.5996 22.7906 12.7996 22.7906C11.9996 22.7906 11.5996 22.5903 11.2996 22.4901C10.9996 22.3899 10.5996 22.1896 10.3996 21.8891C10.0996 21.5886 9.89961 21.2881 9.79961 20.9876C9.69961 20.6871 9.59961 20.2864 9.49961 19.485C9.49961 18.6837 9.49961 18.3832 9.49961 16.2796C9.49961 14.176 9.49961 13.8755 9.49961 13.0742C9.49961 12.2728 9.69961 11.8721 9.79961 11.5716C9.89961 11.2711 10.0996 10.8704 10.3996 10.6701C10.6996 10.3696 10.8996 10.1693 11.2996 10.0691C11.5996 9.96892 11.9996 9.86875 12.7996 9.76858C13.4996 9.86875 13.7996 9.76858 15.2996 9.76858ZM20.2996 11.171C19.7996 11.171 19.2996 11.5716 19.2996 12.1727C19.2996 12.7737 19.6996 13.1743 20.2996 13.1743C20.8996 13.1743 21.2996 12.7737 21.2996 12.1727C21.2996 11.5716 20.7996 11.171 20.2996 11.171ZM15.9996 12.2728C13.6996 12.2728 11.8996 14.0759 11.7996 16.2796C11.7996 18.5835 13.5996 20.3865 15.7996 20.4867H15.8996C18.1996 20.4867 19.9996 18.5835 19.8996 16.2796C19.9996 14.0759 18.1996 12.2728 15.9996 12.2728ZM15.9996 13.6752C17.4996 13.6752 18.6996 14.8772 18.6996 16.3798C18.6996 17.8823 17.4996 19.0843 15.9996 19.0843C14.4996 19.0843 13.2996 17.8823 13.2996 16.3798C13.2996 14.8772 14.4996 13.6752 15.9996 13.6752Z" fill="white"/>
<defs>
<radialGradient id="paint0_radial" cx="0" cy="0" r="1" gradientUnits="userSpaceOnUse" gradientTransform="translate(25.4483 40.5811) rotate(-78.1895) scale(44.0603 43.992)">
<stop stop-color="#FDF497"/>
<stop offset="0.276" stop-color="#FEDA7E"/>
<stop offset="0.492" stop-color="#FD5949"/>
<stop offset="0.724" stop-color="#D6249F"/>
<stop offset="1" stop-color="#285AEB"/>
</radialGradient>
</defs>
</svg>
