<svg width="16" height="25" viewBox="0 0 16 25" fill="none" xmlns="http://www.w3.org/2000/svg">
<path d="M11.7057 19.8052H7.99983H4.29395" stroke="white" stroke-width="2" stroke-linecap="round" stroke-linejoin="round"/>
<path d="M1 5.65741L2 5.65741L1 5.65741ZM11 0.657417L5 0.657416L5 2.65742L11 2.65742L11 0.657417ZM2 19.1055L2 5.65741L3.43012e-06 5.65741L3.21012e-06 19.1055L2 19.1055ZM11 22.1055L5 22.1055L5 24.1055L11 24.1055L11 22.1055ZM16 19.1055L16 5.65742L14 5.65742L14 19.1055L16 19.1055ZM11 24.1055C13.7614 24.1055 16 21.8669 16 19.1055L14 19.1055C14 20.7623 12.6568 22.1055 11 22.1055L11 24.1055ZM11 2.65742C12.6569 2.65742 14 4.00056 14 5.65742L16 5.65742C16 2.896 13.7614 0.657417 11 0.657417L11 2.65742ZM5 0.657416C2.23858 0.657416 3.67113e-06 2.89599 3.43012e-06 5.65741L2 5.65741C2 4.00056 3.34315 2.65742 5 2.65742L5 0.657416ZM3.21012e-06 19.1055C2.96912e-06 21.8669 2.23858 24.1055 5 24.1055L5 22.1055C3.34315 22.1055 2 20.7623 2 19.1055L3.21012e-06 19.1055Z" fill="white"/>
</svg>
