<svg width="32" height="48" viewBox="0 0 32 48" fill="none" xmlns="http://www.w3.org/2000/svg">
<path d="M23.94 36.8233H15.9988H8.05762" stroke="#D74848" stroke-width="2" stroke-linecap="round" stroke-linejoin="round"/>
<path d="M27 7.2797e-06L5.00001 5.3564e-06L5.00001 2.00001L27 2.00001L27 7.2797e-06ZM2.00001 42.8824L2.00001 5.00001L7.47617e-06 5.00001L7.97909e-06 42.8824L2.00001 42.8824ZM26.9999 45.8824L5.00001 45.8824L5.00001 47.8824L26.9999 47.8824L26.9999 45.8824ZM31.9999 42.8824L32 5.00002L30 5.00001L29.9999 42.8824L31.9999 42.8824ZM26.9999 47.8824C29.7614 47.8824 31.9999 45.6438 31.9999 42.8824L29.9999 42.8824C29.9999 44.5392 28.6568 45.8824 26.9999 45.8824L26.9999 47.8824ZM27 2.00001C28.6569 2.00001 30 3.34315 30 5.00001L32 5.00002C32 2.23859 29.7614 7.52111e-06 27 7.2797e-06L27 2.00001ZM5.00001 5.3564e-06C2.23858 5.11499e-06 7.71758e-06 2.23858 7.47617e-06 5.00001L2.00001 5.00001C2.00001 3.34315 3.34315 2.00001 5.00001 2.00001L5.00001 5.3564e-06ZM7.97909e-06 42.8824C7.73767e-06 45.6438 2.23858 47.8824 5.00001 47.8824L5.00001 45.8824C3.34315 45.8824 2.00001 44.5392 2.00001 42.8824L7.97909e-06 42.8824Z" fill="#D74848"/>
</svg>
