<svg width="12" height="18" viewBox="0 0 12 18" fill="none" xmlns="http://www.w3.org/2000/svg">
<path d="M8.64665 12.9409H5.9996H3.35254" stroke="#D74848" stroke-width="2" stroke-linecap="round" stroke-linejoin="round"/>
<path d="M6.99998 16.2941L6.99998 15.2941L6.99998 16.2941ZM1 12.2941L2 12.2941L1 12.2941ZM5.00001 16.2941L5.00001 15.2941L5.00001 16.2941ZM7 -1.75158e-05L5 -1.76907e-05L5 1.99998L7 1.99998L7 -1.75158e-05ZM2 12.2941L2 4.99998L3.84839e-06 4.99998L3.21071e-06 12.2941L2 12.2941ZM6.99998 15.2941L5.00001 15.2941L5.00001 17.2941L6.99998 17.2941L6.99998 15.2941ZM12 12.2941L12 4.99999L10 4.99998L9.99998 12.2941L12 12.2941ZM6.99998 17.2941C9.76141 17.2941 12 15.0555 12 12.2941L9.99998 12.2941C9.99998 13.951 8.65684 15.2941 6.99998 15.2941L6.99998 17.2941ZM7 1.99998C8.65685 1.99998 10 3.34313 10 4.99998L12 4.99999C12 2.23856 9.76142 -1.72744e-05 7 -1.75158e-05L7 1.99998ZM5 -1.76907e-05C2.23858 -1.79321e-05 3.13612e-06 2.23855 3.84839e-06 4.99998L2 4.99998C2 3.34312 3.34315 1.99998 5 1.99998L5 -1.76907e-05ZM3.21071e-06 12.2941C3.92298e-06 15.0555 2.23858 17.2941 5.00001 17.2941L5.00001 15.2941C3.34315 15.2941 2 13.951 2 12.2941L3.21071e-06 12.2941Z" fill="#D74848"/>
</svg>
